<svg xmlns="http://www.w3.org/2000/svg" width="900" height="500" viewBox="0 0 900 500" role="img">
  <style>
    text { font-family: Arial, Helvetica, sans-serif; fill: #1F2933; }
    .title { font-size: 22px; font-weight: 700; }
    .subtitle { font-size: 13px; fill: #56616B; }
    .axis { font-size: 12px; fill: #56616B; }
    .label { font-size: 12px; }
    .small { font-size: 11px; fill: #56616B; }
    .value { font-size: 12px; font-weight: 700; }
    .grid { stroke: #D9DED9; stroke-width: 1; }
  </style>
  <rect width="100%" height="100%" fill="white"/>
<text x="86" y="38" class="title">Raw experience quartiles do not form a simple trust gradient</text>
<text x="86" y="62" class="subtitle">Human-linked, non-Devin/Copilot sensitivity sample; rates by account-age quartile</text>
<line x1="86" y1="408.0" x2="848" y2="408.0" class="grid"/>
<text x="74" y="412.0" class="axis" text-anchor="end">0%</text>
<line x1="86" y1="355.3" x2="848" y2="355.3" class="grid"/>
<text x="74" y="359.3" class="axis" text-anchor="end">15%</text>
<line x1="86" y1="302.7" x2="848" y2="302.7" class="grid"/>
<text x="74" y="306.7" class="axis" text-anchor="end">30%</text>
<line x1="86" y1="250.0" x2="848" y2="250.0" class="grid"/>
<text x="74" y="254.0" class="axis" text-anchor="end">45%</text>
<line x1="86" y1="197.3" x2="848" y2="197.3" class="grid"/>
<text x="74" y="201.3" class="axis" text-anchor="end">60%</text>
<line x1="86" y1="144.7" x2="848" y2="144.7" class="grid"/>
<text x="74" y="148.7" class="axis" text-anchor="end">75%</text>
<line x1="86" y1="92.0" x2="848" y2="92.0" class="grid"/>
<text x="74" y="96.0" class="axis" text-anchor="end">90%</text>
<polyline points="86.0,112.8 340.0,147.7 594.0,111.4 848.0,122.4" fill="none" stroke="#2A9D8F" stroke-width="3"/>
<circle cx="86.0" cy="112.8" r="5" fill="white" stroke="#2A9D8F" stroke-width="3"/>
<text x="86.0" y="102.8" class="small" text-anchor="middle">84.1</text>
<circle cx="340.0" cy="147.7" r="5" fill="white" stroke="#2A9D8F" stroke-width="3"/>
<text x="340.0" y="137.7" class="small" text-anchor="middle">74.1</text>
<circle cx="594.0" cy="111.4" r="5" fill="white" stroke="#2A9D8F" stroke-width="3"/>
<text x="594.0" y="101.4" class="small" text-anchor="middle">84.5</text>
<circle cx="848.0" cy="122.4" r="5" fill="white" stroke="#2A9D8F" stroke-width="3"/>
<text x="848.0" y="112.4" class="small" text-anchor="middle">81.3</text>
<polyline points="86.0,386.1 340.0,357.5 594.0,407.2 848.0,381.9" fill="none" stroke="#457B9D" stroke-width="3"/>
<circle cx="86.0" cy="386.1" r="5" fill="white" stroke="#457B9D" stroke-width="3"/>
<text x="86.0" y="376.1" class="small" text-anchor="middle">6.2</text>
<circle cx="340.0" cy="357.5" r="5" fill="white" stroke="#457B9D" stroke-width="3"/>
<text x="340.0" y="347.5" class="small" text-anchor="middle">14.4</text>
<circle cx="594.0" cy="407.2" r="5" fill="white" stroke="#457B9D" stroke-width="3"/>
<text x="594.0" y="397.2" class="small" text-anchor="middle">0.2</text>
<circle cx="848.0" cy="381.9" r="5" fill="white" stroke="#457B9D" stroke-width="3"/>
<text x="848.0" y="371.9" class="small" text-anchor="middle">7.4</text>
<polyline points="86.0,370.1 340.0,330.6 594.0,406.8 848.0,362.2" fill="none" stroke="#E76F51" stroke-width="3"/>
<circle cx="86.0" cy="370.1" r="5" fill="white" stroke="#E76F51" stroke-width="3"/>
<text x="86.0" y="360.1" class="small" text-anchor="middle">10.8</text>
<circle cx="340.0" cy="330.6" r="5" fill="white" stroke="#E76F51" stroke-width="3"/>
<text x="340.0" y="320.6" class="small" text-anchor="middle">22.0</text>
<circle cx="594.0" cy="406.8" r="5" fill="white" stroke="#E76F51" stroke-width="3"/>
<text x="594.0" y="396.8" class="small" text-anchor="middle">0.3</text>
<circle cx="848.0" cy="362.2" r="5" fill="white" stroke="#E76F51" stroke-width="3"/>
<text x="848.0" y="352.2" class="small" text-anchor="middle">13.0</text>
<text x="86.0" y="436" class="axis" text-anchor="middle">Q1 least</text>
<text x="86.0" y="454" class="small" text-anchor="middle">n=5950</text>
<text x="340.0" y="436" class="axis" text-anchor="middle">Q2</text>
<text x="340.0" y="454" class="small" text-anchor="middle">n=5949</text>
<text x="594.0" y="436" class="axis" text-anchor="middle">Q3</text>
<text x="594.0" y="454" class="small" text-anchor="middle">n=5949</text>
<text x="848.0" y="436" class="axis" text-anchor="middle">Q4 most</text>
<text x="848.0" y="454" class="small" text-anchor="middle">n=5950</text>
<line x1="98" y1="459" x2="133" y2="459" stroke="#2A9D8F" stroke-width="3"/>
<circle cx="115.5" cy="459" r="5" fill="white" stroke="#2A9D8F" stroke-width="3"/>
<text x="144" y="463" class="axis">Merged</text>
<line x1="288" y1="459" x2="323" y2="459" stroke="#457B9D" stroke-width="3"/>
<circle cx="305.5" cy="459" r="5" fill="white" stroke="#457B9D" stroke-width="3"/>
<text x="334" y="463" class="axis">Human review</text>
<line x1="478" y1="459" x2="513" y2="459" stroke="#E76F51" stroke-width="3"/>
<circle cx="495.5" cy="459" r="5" fill="white" stroke="#E76F51" stroke-width="3"/>
<text x="524" y="463" class="axis">Human discussion</text>
</svg>