<svg xmlns="http://www.w3.org/2000/svg" width="940" height="540" viewBox="0 0 940 540" role="img">
  <style>
    text { font-family: Arial, Helvetica, sans-serif; fill: #1F2933; }
    .title { font-size: 22px; font-weight: 700; }
    .subtitle { font-size: 13px; fill: #56616B; }
    .axis { font-size: 12px; fill: #56616B; }
    .label { font-size: 12px; }
    .small { font-size: 11px; fill: #56616B; }
    .value { font-size: 12px; font-weight: 700; }
    .grid { stroke: #D9DED9; stroke-width: 1; }
  </style>
  <rect width="100%" height="100%" fill="white"/>
<text x="245" y="38" class="title">Controlled merge model: context dominates account age and agent label</text>
<text x="245" y="62" class="subtitle">Odds ratios with 95% confidence intervals; closed PRs in enriched human-linked non-extreme sample, n=1,818</text>
<line x1="245.0" y1="92" x2="245.0" y2="478" class="grid"/>
<text x="245.0" y="503" class="axis" text-anchor="middle">0.02</text>
<line x1="346.2" y1="92" x2="346.2" y2="478" class="grid"/>
<text x="346.2" y="503" class="axis" text-anchor="middle">0.05</text>
<line x1="422.8" y1="92" x2="422.8" y2="478" class="grid"/>
<text x="422.8" y="503" class="axis" text-anchor="middle">0.1</text>
<line x1="524.0" y1="92" x2="524.0" y2="478" class="grid"/>
<text x="524.0" y="503" class="axis" text-anchor="middle">0.25</text>
<line x1="600.6" y1="92" x2="600.6" y2="478" class="grid"/>
<text x="600.6" y="503" class="axis" text-anchor="middle">0.5</text>
<line x1="677.2" y1="92" x2="677.2" y2="478" class="grid"/>
<text x="677.2" y="503" class="axis" text-anchor="middle">1</text>
<line x1="753.8" y1="92" x2="753.8" y2="478" class="grid"/>
<text x="753.8" y="503" class="axis" text-anchor="middle">2</text>
<line x1="855.0" y1="92" x2="855.0" y2="478" class="grid"/>
<text x="855.0" y="503" class="axis" text-anchor="middle">5</text>
<line x1="677.2" y1="92" x2="677.2" y2="478" stroke="#111827" stroke-width="1.4"/>
<text x="229" y="144.2" class="label" text-anchor="end">Account age</text>
<line x1="667.6" y1="140.2" x2="714.3" y2="140.2" stroke="#2A9D8F" stroke-width="3" opacity="0.9"/>
<circle cx="690.9" cy="140.2" r="6" fill="#2A9D8F" stroke="white" stroke-width="1.5"/>
<text x="871" y="144.2" class="small">OR 1.13; p=0.248</text>
<text x="229" y="192.5" class="label" text-anchor="end">Total churn</text>
<line x1="606.1" y1="188.5" x2="648.0" y2="188.5" stroke="#E76F51" stroke-width="3" opacity="0.9"/>
<circle cx="627.0" cy="188.5" r="6" fill="#E76F51" stroke="white" stroke-width="1.5"/>
<text x="871" y="192.5" class="small">OR 0.64; p=2.67e-06 *</text>
<text x="229" y="240.8" class="label" text-anchor="end">Commits</text>
<line x1="685.5" y1="236.8" x2="725.6" y2="236.8" stroke="#2A9D8F" stroke-width="3" opacity="0.9"/>
<circle cx="705.5" cy="236.8" r="6" fill="#2A9D8F" stroke="white" stroke-width="1.5"/>
<text x="871" y="240.8" class="small">OR 1.29; p=0.00557 *</text>
<text x="229" y="289.0" class="label" text-anchor="end">No repo association</text>
<line x1="245.0" y1="285.0" x2="482.0" y2="285.0" stroke="#E76F51" stroke-width="3" opacity="0.9"/>
<circle cx="337.3" cy="285.0" r="6" fill="#E76F51" stroke="white" stroke-width="1.5"/>
<text x="871" y="289.0" class="small">OR 0.05; p=4.13e-06 *</text>
<text x="229" y="337.2" class="label" text-anchor="end">Owner</text>
<line x1="730.6" y1="333.2" x2="822.0" y2="333.2" stroke="#2A9D8F" stroke-width="3" opacity="0.9"/>
<circle cx="776.3" cy="333.2" r="6" fill="#2A9D8F" stroke="white" stroke-width="1.5"/>
<text x="871" y="337.2" class="small">OR 2.45; p=2.13e-05 *</text>
<text x="229" y="385.5" class="label" text-anchor="end">Claude Code</text>
<line x1="658.6" y1="381.5" x2="834.6" y2="381.5" stroke="#2A9D8F" stroke-width="3" opacity="0.9"/>
<circle cx="746.6" cy="381.5" r="6" fill="#2A9D8F" stroke="white" stroke-width="1.5"/>
<text x="871" y="385.5" class="small">OR 1.87; p=0.122</text>
<text x="229" y="433.8" class="label" text-anchor="end">Cursor</text>
<line x1="628.7" y1="429.8" x2="741.1" y2="429.8" stroke="#2A9D8F" stroke-width="3" opacity="0.9"/>
<circle cx="684.9" cy="429.8" r="6" fill="#2A9D8F" stroke="white" stroke-width="1.5"/>
<text x="871" y="433.8" class="small">OR 1.07; p=0.788</text>
<text x="245" y="522" class="small">Reference groups: OpenAI Codex for agent; CONTRIBUTOR for author association. Values left of 1 indicate lower merge odds.</text>
</svg>