<svg xmlns="http://www.w3.org/2000/svg" width="920" height="500" viewBox="0 0 920 500" role="img">
  <style>
    text { font-family: Arial, Helvetica, sans-serif; fill: #1F2933; }
    .title { font-size: 22px; font-weight: 700; }
    .subtitle { font-size: 13px; fill: #56616B; }
    .axis { font-size: 12px; fill: #56616B; }
    .label { font-size: 12px; }
    .small { font-size: 11px; fill: #56616B; }
    .value { font-size: 12px; font-weight: 700; }
    .grid { stroke: #D9DED9; stroke-width: 1; }
  </style>
  <rect width="100%" height="100%" fill="white"/>
<text x="78" y="38" class="title">GitHub-enriched PRs differ in scale by agent</text>
<text x="78" y="62" class="subtitle">Median PR complexity fields in the 2,003-row enriched subset</text>
<text x="211.7" y="70" class="label" text-anchor="middle" font-weight="700">Total churn</text>
<line x1="100.0" y1="418.0" x2="323.3" y2="418.0" class="grid"/>
<text x="92.0" y="422.0" class="axis" text-anchor="end">0</text>
<line x1="100.0" y1="336.5" x2="323.3" y2="336.5" class="grid"/>
<text x="92.0" y="340.5" class="axis" text-anchor="end">165</text>
<line x1="100.0" y1="255.0" x2="323.3" y2="255.0" class="grid"/>
<text x="92.0" y="259.0" class="axis" text-anchor="end">331</text>
<line x1="100.0" y1="173.5" x2="323.3" y2="173.5" class="grid"/>
<text x="92.0" y="177.5" class="axis" text-anchor="end">496</text>
<line x1="100.0" y1="92.0" x2="323.3" y2="92.0" class="grid"/>
<text x="92.0" y="96.0" class="axis" text-anchor="end">662</text>
<rect x="130.8" y="141.7" width="42.0" height="276.3" rx="4" fill="#2A9D8F"/>
<text x="151.8" y="134.7" class="value" text-anchor="middle">561</text>
<text x="151.8" y="440.0" class="axis" text-anchor="middle">Claude Code</text>
<rect x="190.7" y="358.9" width="42.0" height="59.1" rx="4" fill="#457B9D"/>
<text x="211.7" y="351.9" class="value" text-anchor="middle">120</text>
<text x="211.7" y="440.0" class="axis" text-anchor="middle">Cursor</text>
<rect x="250.5" y="394.9" width="42.0" height="23.1" rx="4" fill="#E76F51"/>
<text x="271.5" y="387.9" class="value" text-anchor="middle">47</text>
<text x="271.5" y="440.0" class="axis" text-anchor="middle">Codex</text>
<text x="479.0" y="70" class="label" text-anchor="middle" font-weight="700">Changed files</text>
<line x1="367.3" y1="418.0" x2="590.7" y2="418.0" class="grid"/>
<line x1="367.3" y1="336.5" x2="590.7" y2="336.5" class="grid"/>
<line x1="367.3" y1="255.0" x2="590.7" y2="255.0" class="grid"/>
<line x1="367.3" y1="173.5" x2="590.7" y2="173.5" class="grid"/>
<line x1="367.3" y1="92.0" x2="590.7" y2="92.0" class="grid"/>
<rect x="398.2" y="141.7" width="42.0" height="276.3" rx="4" fill="#2A9D8F"/>
<text x="419.2" y="134.7" class="value" text-anchor="middle">7</text>
<text x="419.2" y="440.0" class="axis" text-anchor="middle">Claude Code</text>
<rect x="458.0" y="299.6" width="42.0" height="118.4" rx="4" fill="#457B9D"/>
<text x="479.0" y="292.6" class="value" text-anchor="middle">3</text>
<text x="479.0" y="440.0" class="axis" text-anchor="middle">Cursor</text>
<rect x="517.8" y="339.1" width="42.0" height="78.9" rx="4" fill="#E76F51"/>
<text x="538.8" y="332.1" class="value" text-anchor="middle">2</text>
<text x="538.8" y="440.0" class="axis" text-anchor="middle">Codex</text>
<text x="746.3" y="70" class="label" text-anchor="middle" font-weight="700">Commits</text>
<line x1="634.7" y1="418.0" x2="858.0" y2="418.0" class="grid"/>
<line x1="634.7" y1="336.5" x2="858.0" y2="336.5" class="grid"/>
<line x1="634.7" y1="255.0" x2="858.0" y2="255.0" class="grid"/>
<line x1="634.7" y1="173.5" x2="858.0" y2="173.5" class="grid"/>
<line x1="634.7" y1="92.0" x2="858.0" y2="92.0" class="grid"/>
<rect x="665.5" y="141.7" width="42.0" height="276.3" rx="4" fill="#2A9D8F"/>
<text x="686.5" y="134.7" class="value" text-anchor="middle">2</text>
<text x="686.5" y="440.0" class="axis" text-anchor="middle">Claude Code</text>
<rect x="725.3" y="141.7" width="42.0" height="276.3" rx="4" fill="#457B9D"/>
<text x="746.3" y="134.7" class="value" text-anchor="middle">2</text>
<text x="746.3" y="440.0" class="axis" text-anchor="middle">Cursor</text>
<rect x="785.2" y="279.9" width="42.0" height="138.1" rx="4" fill="#E76F51"/>
<text x="806.2" y="272.9" class="value" text-anchor="middle">1</text>
<text x="806.2" y="440.0" class="axis" text-anchor="middle">Codex</text>
<text x="78" y="475" class="small">Interpretation: controls for churn, files, and commits are necessary before comparing review or merge outcomes by agent.</text>
</svg>